# xmcd CD database file
#
# Track frame offsets:
#	150
#	16741
#	31686
#	46463
#	59512
#	74152
#	90185
#	104331
#	117582
#	129442
#	144560
#	158028
#	169803
#	184574
#	197923
#	212755
#	228408
#	241690
#	253600
#	267579
#	283049
#
# Disc length: 3955 seconds
#
# Revision: 0
# Processed by: cddbd v1.5.1PL0 Copyright (c) Steve Scherf et al.
# Submitted via: CDex 1.51
#
DISCID=2d0f7115
DTITLE=Glen Miller - In The Mood - The Definitive Collection
DYEAR=1900
DGENRE=Jazz
TTITLE0=01 - In the Mood
TTITLE1=02 - (I've Got a Gal in) Kalamazoo
TTITLE2=03 - My Blue Heaven
TTITLE3=04 - Little Brown Jug
TTITLE4=05 - Don't Sit Under the Apple Tree (with Anyone Else but Me
TTITLE5=06 - The Story of a Starry Night
TTITLE6=07 - At Last
TTITLE7=08 - Blueberry Hill
TTITLE8=09 - Ding Dong! The Witch Is Dead
TTITLE9=10 - American Patrol
TTITLE10=11 - Bugle Call Rag
TTITLE11=12 - Fools Rush In (Where Angels Fear to Tread)
TTITLE12=13 - The Nearness of You
TTITLE13=14 - Blue Orchids
TTITLE14=15 - Pennsylvania 6-5000
TTITLE15=16 - Song of the Volga Boatmen
TTITLE16=17 - Moon Love
TTITLE17=18 - I'll Never Smile Again
TTITLE18=19 - Rhapsody In Blue
TTITLE19=20 - Moonlight Serenade
TTITLE20=21 - Glenn Miller and Benny Goodman - Jersey Bounce
EXTD=
EXTT0=
EXTT1=
EXTT2=
EXTT3=
EXTT4=
EXTT5=
EXTT6=
EXTT7=
EXTT8=
EXTT9=
EXTT10=
EXTT11=
EXTT12=
EXTT13=
EXTT14=
EXTT15=
EXTT16=
EXTT17=
EXTT18=
EXTT19=
EXTT20=
PLAYORDER=
